<?xml version="1.0" encoding="utf-8"?>
<!-- Generator: Adobe Illustrator 24.0.0, SVG Export Plug-In . SVG Version: 6.00 Build 0)  -->
<svg version="1.1" id="Layer_1" xmlns="http://www.w3.org/2000/svg" xmlns:xlink="http://www.w3.org/1999/xlink" x="0px" y="0px"
	 viewBox="0 0 512 512" style="enable-background:new 0 0 512 512;" xml:space="preserve">
<style type="text/css">
	.st0{fill-rule:evenodd;clip-rule:evenodd;fill:#EA4335;}
	.st1{fill-rule:evenodd;clip-rule:evenodd;fill:#FBBC04;}
	.st2{fill-rule:evenodd;clip-rule:evenodd;fill:#34A853;}
	.st3{fill-rule:evenodd;clip-rule:evenodd;fill:#4285F4;}
</style>
<g>
	<path class="st0" d="M31,379.4c0-29.3,23.8-53.1,53.1-53.1h259.4c29.3,0,53.1,23.7,53.1,53.1c0,29.3-23.8,53.1-53.1,53.1H84.1
		C54.8,432.4,31,408.7,31,379.4L31,379.4z M84.1,404.9c14.1,0,25.5-11.4,25.5-25.5s-11.4-25.5-25.5-25.5s-25.5,11.4-25.5,25.5
		C58.5,393.5,70,404.9,84.1,404.9z M343.5,404.9c14.1,0,25.5-11.4,25.5-25.5s-11.4-25.5-25.5-25.5S318,365.3,318,379.4
		C317.9,393.5,329.4,404.9,343.5,404.9z"/>
	<path class="st1" d="M90.7,195.7c17.2-23.7,50.4-29,74.1-11.7l209.9,152.5c23.7,17.2,29,50.4,11.7,74.1
		c-17.2,23.7-50.4,29-74.1,11.7L102.4,269.8C78.7,252.6,73.4,219.4,90.7,195.7L90.7,195.7z M118.6,247.5c11.4,8.3,27.4,5.8,35.7-5.7
		c8.3-11.4,5.8-27.4-5.7-35.7c-11.4-8.3-27.4-5.8-35.7,5.7C104.6,223.3,107.2,239.3,118.6,247.5L118.6,247.5z M328.5,400
		c11.4,8.3,27.4,5.8,35.7-5.7c8.3-11.4,5.8-27.4-5.7-35.7c-11.4-8.3-27.4-5.8-35.7,5.7C314.5,375.8,317,391.7,328.5,400L328.5,400z"
		/>
	<path class="st2" d="M246.9,82.2c27.9-9.1,57.8,6.2,66.9,34.1L393.9,363c9.1,27.9-6.2,57.8-34.1,66.9s-57.8-6.2-66.9-34.1
		L212.8,149C203.8,121.2,219,91.2,246.9,82.2L246.9,82.2z M239,140.5c4.4,13.4,18.8,20.8,32.2,16.4c13.4-4.4,20.8-18.8,16.4-32.2
		s-18.8-20.8-32.2-16.4S234.6,127.1,239,140.5L239,140.5z M319.2,387.2c4.4,13.4,18.8,20.8,32.2,16.4c13.4-4.4,20.8-18.8,16.4-32.2
		c-4.4-13.4-18.8-20.8-32.2-16.4C322.2,359.4,314.8,373.8,319.2,387.2L319.2,387.2z"/>
	<path class="st3" d="M445.2,83.9c27.7,9.5,42.4,39.7,32.9,67.4l-84.5,245.3c-9.5,27.7-39.7,42.4-67.4,32.9
		c-27.7-9.5-42.4-39.7-32.9-67.4l84.5-245.3C387.3,89.1,417.5,74.4,445.2,83.9L445.2,83.9z M403.8,125.8
		c-4.6,13.3,2.5,27.9,15.8,32.5s27.9-2.5,32.5-15.8s-2.5-27.9-15.8-32.5C422.9,105.3,408.4,112.4,403.8,125.8z M319.3,371
		c-4.6,13.3,2.5,27.9,15.8,32.5s27.9-2.5,32.5-15.8s-2.5-27.9-15.8-32.5C338.4,350.6,323.9,357.7,319.3,371z"/>
</g>
</svg>
