<svg xmlns="http://www.w3.org/2000/svg" width="273.97" height="323.898" viewBox="0 0 273.97 323.898"><defs><style>.a{fill:transparent;}.b{fill:#7a7473;}.c{fill:#211715;}.d{fill:#645d5c;}</style></defs><path class="a" d="M177.51,69.17a6.3,6.3,0,0,1,4.583-1.672,5.87,5.87,0,0,1,5.266,2.978c1.781,3.144,1.683,8.924.465,12.5-.862,2.529-2.273,6.4-5.65,9.164a6.759,6.759,0,0,1-6,1.4,48.681,48.681,0,0,1-8.991,17.158,33.208,33.208,0,0,1-11.052,9.185v4.975a9.6,9.6,0,0,0,.41,3.4,8.262,8.262,0,0,0,2.48,3.61c2.52,2.03,5.11,3,8.3,4.2l2.165.854c-7.113,5.837-20.017,10.537-33.465,10.577-13.055-.038-25.6-4.47-32.828-10.07l3.458-1.361c3.19-1.2,5.78-2.17,8.3-4.2a8.262,8.262,0,0,0,2.48-3.61,9.6,9.6,0,0,0,.41-3.4s0-1.672,0-4.486a37.357,37.357,0,0,1-11.279-9.674A48.7,48.7,0,0,1,97.5,93.273a6.8,6.8,0,0,1-5.816-1.494c-3.356-2.791-4.737-6.671-5.58-9.207-1.189-3.581-1.243-9.362.562-12.492a5.871,5.871,0,0,1,5.289-2.936,6.3,6.3,0,0,1,4.57,1.708s-2.907-31.066,40.464-31.066C182.754,37.786,177.51,69.17,177.51,69.17Z"/><path class="a" d="M172.593,243.769c-19.46.016-44.045.029-62.688.042a67.852,67.852,0,0,0-6.95-8.473,16.445,16.445,0,0,0-4.958-2.3,16.24,16.24,0,0,0-4.045-.595,40.7,40.7,0,0,0-5.2.441,58.966,58.966,0,0,1-9.819.468c-1.744-.106-4.5-.061-5.936.928a21.742,21.742,0,0,0-5.8,5.533,45.188,45.188,0,0,0-5.853,12.206,8.047,8.047,0,0,0,0,4.394l-7.924-2.573c-7.908-3.389-14.4-10.606-13.963-20.723.361-8.333,2.665-17.436,3.972-22.666,4.667-18.682,8.562-31.266,15.348-45.842,3.363-7.223,10.652-13.29,17.485-16.742a177.27,177.27,0,0,1,26.614-10.692c7.177,5.721,19.9,10.285,33.149,10.324,13.12-.039,25.722-4.514,32.935-10.153l.514-.4c1.687.572,3.366,1.146,4.539,1.6,8.773,3.367,16.847,6.4,24.166,10.583a48.039,48.039,0,0,1,16.806,15.834,95.237,95.237,0,0,1,7.177,15.722c3.02,9.159,5.595,19.242,9.073,31.611a95.685,95.685,0,0,1,3.277,21.052c.545,12.58-9.027,22.4-20.2,21.357a21.7,21.7,0,0,0-2.358-6.293,24.636,24.636,0,0,0-6.236-6.206c-2.769-1.636-5.486-3.229-9.245-3.626a38.622,38.622,0,0,0-11.08.42,31,31,0,0,0-11.272,4.287q-.405.243-.806.491Z"/><path class="b" d="M201.906,321.465c-27.835-.031-110.462-.387-133.306-.387a5.647,5.647,0,0,1-5.646-5.646v-.6a5.472,5.472,0,0,1,.236-1.613C68.457,295.949,75.2,275.49,79.28,262l1.344-4.444H193.185c3.476,11.045,14.114,45.429,17.562,56.542a5.783,5.783,0,0,1,.269,1.722,5.639,5.639,0,0,1-5.638,5.646Z"/><path class="c" d="M76.966,261.363c-3.811,12.583-7.908,25.078-11.862,37.616q-1.57,4.982-3.115,9.972c-.95,3.077-2.139,6.209-.873,9.392a8.135,8.135,0,0,0,7.14,5.125c1.249.071,2.519.011,3.77.012q24.369.027,48.737.137,29.127.1,58.252.194,10.773.031,21.547.052c3.7,0,7.806.508,10.613-2.468a8.288,8.288,0,0,0,1.794-8.234c-.439-1.462-.905-2.917-1.357-4.375-5.22-16.843-10.412-33.695-15.689-50.519q-.512-1.635-1.03-3.268c-.932-2.933-5.568-1.68-4.628,1.276,4.99,15.7,9.8,31.449,14.671,47.181q1.552,5.009,3.106,10.019c.552,1.782,1.033,3.648-.727,4.967-1.116.836-2.6.625-3.919.624q-9.607-.007-19.214-.04-27.805-.078-55.611-.183-25.446-.087-50.893-.154-4.055-.007-8.109-.011c-1.614,0-3.212-.255-3.947-1.914a4.829,4.829,0,0,1,0-3.306c.5-1.7,1.038-3.384,1.562-5.073C71.123,295.7,75.235,283.072,79.2,270.4q1.212-3.874,2.393-7.758c.9-2.963-3.734-4.229-4.628-1.276Z"/><path class="c" d="M2.318,246.323c11.683,0,23.365-.052,35.047-.052,3.089,0,3.094-4.8,0-4.8-11.682,0-23.364.051-35.047.052-3.088,0-3.093,4.8,0,4.8Z"/><path class="c" d="M233.605,246.323c9.918,0,19.836-.033,29.754-.046q4.146,0,8.293-.006c3.088,0,3.093-4.8,0-4.8q-16.177,0-32.354.045-2.847,0-5.693.007c-3.089,0-3.094,4.8,0,4.8Z"/><path class="c" d="M96.538,246.221q17.49-.015,34.98-.024,19.814-.012,39.625-.024l18.524-.014c3.088,0,3.094-4.8,0-4.8q-17.61.015-35.219.024l-39.559.025-18.351.013c-3.088,0-3.093,4.8,0,4.8Z"/><path class="c" d="M109.63,259.957h60.136c3.089,0,3.094-4.8,0-4.8H109.63c-3.089,0-3.094,4.8,0,4.8Z"/><path class="c" d="M58.665,227.643a49.454,49.454,0,0,1,15.822-3.862,2.457,2.457,0,0,0,2.4-2.4,2.421,2.421,0,0,0-2.4-2.4A55.248,55.248,0,0,0,56.243,223.5a2.415,2.415,0,0,0-.861,3.284,2.462,2.462,0,0,0,3.283.861Z"/><path class="c" d="M194.411,182.563c-.81,15.259-2.062,30.49-2.9,45.747-.168,3.087,4.633,3.077,4.8,0,.833-15.257,2.085-30.488,2.9-45.747.164-3.087-4.637-3.078-4.8,0Z"/><path class="c" d="M74.76,190.869c.423,6.305,1.046,12.6,1.485,18.9a2.457,2.457,0,0,0,2.4,2.4,2.421,2.421,0,0,0,2.4-2.4c-.439-6.3-1.062-12.593-1.485-18.9a2.457,2.457,0,0,0-2.4-2.4,2.42,2.42,0,0,0-2.4,2.4Z"/><path class="c" d="M164.305,137.684c9.933,3.633,20.019,6.908,29.452,11.768,8.961,4.616,16.534,11.19,21.133,20.274,4.163,8.222,6.735,16.943,9.211,25.789,2.913,10.408,6.369,20.847,7.54,31.633.595,5.485,1.027,11.056-1.595,16.114a16.762,16.762,0,0,1-10.061,8.543c-2.957.869-1.7,5.5,1.276,4.629,9.59-2.819,15.621-12.16,15.673-21.951.063-11.9-3.55-23.366-6.67-34.7-2.688-9.769-5.264-19.576-9.478-28.82a53.935,53.935,0,0,0-7.534-12.4,50.756,50.756,0,0,0-12.819-10.9c-10.813-6.517-23.068-10.294-34.852-14.6a2.422,2.422,0,0,0-2.952,1.676,2.45,2.45,0,0,0,1.676,2.953Z"/><path class="c" d="M92.976,138.035c-5.175,1.918-10.277,4.042-15.249,6.437a54.321,54.321,0,0,0-12.3,7.837,34.891,34.891,0,0,0-8.9,11.449q-2.976,6.4-5.5,13.008a260.491,260.491,0,0,0-8.485,27.394c-2.482,9.555-5.269,19.413-5.509,29.341-.241,10,6.2,18.5,15.166,22.407a2.479,2.479,0,0,0,3.284-.861,2.419,2.419,0,0,0-.861-3.284c-6.818-2.971-12.357-8.827-12.766-16.553-.252-4.776.683-9.709,1.62-14.372.859-4.277,1.933-8.509,3.009-12.736,2.307-9.059,4.814-18.078,7.988-26.875q2.16-5.982,4.728-11.8c1.83-4.135,3.8-7.911,6.959-11.2a43.38,43.38,0,0,1,12.062-8.669,162.483,162.483,0,0,1,16.02-6.891,2.468,2.468,0,0,0,1.676-2.953,2.419,2.419,0,0,0-2.952-1.676Z"/><path class="a" d="M187.828,278.293c-.55.409-1.1.8-1.64,1.139-1.245.794-4.121,1.8-6.025.838a3.629,3.629,0,0,1-2-2.766l-.156.1c-2.4,1.594-6.368,2.541-8.694.715a5.313,5.313,0,0,1-.869-6.44,8.214,8.214,0,0,1,.806-1.274c-1.266.576-3.647,1.367-5.2-1.463-1.026-1.874-.373-4.893,1.826-7.243.829-.887,2.528-3.132,4.239-4.8.367-.356.74-.71,1.115-1.061l-1.644-.155a4.049,4.049,0,0,1-3.369-2.011,4.8,4.8,0,0,1-.2-3.443c.7-2.262,4.325-4.893,8.1-7.154A31,31,0,0,1,185.4,238.99a38.622,38.622,0,0,1,11.08-.42c3.759.4,6.476,1.99,9.245,3.626a24.636,24.636,0,0,1,6.236,6.206,18.314,18.314,0,0,1,2.585,9.078c-.122,4.9-1.225,7.709-4.1,11.042a82.434,82.434,0,0,1-6.52,6.6c-2.682,2.366-5.355,2.8-7.355,2.066-1.609-.59-1.944-3.545-1.375-4.753l.108-.229-.054.043c-.6.472-1.132.885-1.524,1.2C192.345,274.541,190.089,276.612,187.828,278.293Z"/><path class="c" d="M181.708,255.131c-2.93,2.563-5.741,5.25-8.542,7.952-2.466,2.38-5.391,4.769-6.959,7.883-1.667,3.313-.874,8.058,2.616,9.884,3.257,1.7,7.445.724,10.4-1.17,2.592-1.662.188-5.818-2.423-4.145a8.613,8.613,0,0,1-3.331,1.329,7.664,7.664,0,0,1-1.441.041,3.461,3.461,0,0,1-.833-.22c.244.1-.694-.48-.348-.2a2.485,2.485,0,0,1-.463-.689,3.208,3.208,0,0,1-.231-1.758,5.826,5.826,0,0,1,1.353-2.429,78.665,78.665,0,0,1,6.134-6.171c2.441-2.355,4.91-4.678,7.463-6.911a2.422,2.422,0,0,0,0-3.394,2.447,2.447,0,0,0-3.394,0Z"/><path class="c" d="M167.611,268.675c-.085.022-.72.127-.18.074a3.635,3.635,0,0,1-.542.013c.064,0-.135-.029-.157-.049a6.008,6.008,0,0,1-.42-.466l-.184-.312q.083.266,0,.023a2.936,2.936,0,0,1-.158-.6c.058.374.012-.4.013-.4.053-1.678,1.51-3.222,2.681-4.626a88.841,88.841,0,0,1,10.944-10.475,2.42,2.42,0,0,0,0-3.394,2.45,2.45,0,0,0-3.394,0,89.828,89.828,0,0,0-12.707,12.549c-1.84,2.335-3.036,5.65-1.875,8.559a5.948,5.948,0,0,0,7.253,3.732c2.983-.788,1.718-5.419-1.276-4.628Z"/><path class="c" d="M190.2,260.215c-3.167,2.811-6.385,5.57-9.429,8.516-2.677,2.59-6.028,5.951-4.77,10.041,1.433,4.662,6.683,4.937,10.479,3.217a23.421,23.421,0,0,0,4.841-3.4c1.383-1.128,2.707-2.326,4.1-3.439,2.707-2.163,5.541-4.187,8.132-6.49a2.4,2.4,0,0,0-3.394-3.394c-2.023,1.8-4.206,3.425-6.34,5.087-2.256,1.758-4.382,3.671-6.631,5.436a11.972,11.972,0,0,1-3.59,2.2c-1,.305-2.325.522-2.867-.3-.478-.727-.191-1.348.461-2.292a24.129,24.129,0,0,1,3.284-3.563c2.958-2.829,6.057-5.5,9.118-8.216a2.4,2.4,0,0,0-3.395-3.394Z"/><path class="c" d="M169.592,253.485c-1,.034-1.486-.969-1.372-1.877a4.794,4.794,0,0,1,1.8-2.533,35.618,35.618,0,0,1,9.071-5.724,30.837,30.837,0,0,1,9.392-2.376,26.512,26.512,0,0,1,10.3.5,21.123,21.123,0,0,1,7.084,3.8,16.772,16.772,0,0,1,4.97,6.251,15.217,15.217,0,0,1,1,9.228,14.043,14.043,0,0,1-3.6,6.656c-1.158,1.3-2.372,2.545-3.61,3.764a18.737,18.737,0,0,1-3.908,3.3,5.021,5.021,0,0,1-1.889.627,5.674,5.674,0,0,1-.763.008c-.1-.013-.788-.225-.454-.046.257.138-.06-.055-.163-.309.076.188-.1-.534-.09-.443a1.743,1.743,0,0,1,.155-1.235,2.415,2.415,0,0,0-1.677-2.952,2.459,2.459,0,0,0-2.952,1.676,6.769,6.769,0,0,0,.191,4.839,4.947,4.947,0,0,0,4.014,3.146c4.44.712,7.837-2.182,10.794-5.082,2.647-2.6,5.567-5.376,7.218-8.745a19.6,19.6,0,0,0,1.561-11.741c-1.31-7.627-7.107-13.348-13.975-16.371a27.036,27.036,0,0,0-13.38-1.754,38.536,38.536,0,0,0-12.637,3.114,44.168,44.168,0,0,0-6.51,3.751,20.772,20.772,0,0,0-5.469,4.892,7.185,7.185,0,0,0-.926,6.363,6.346,6.346,0,0,0,5.832,4.072c3.081-.105,3.095-4.905,0-4.8Z"/><path class="c" d="M102.125,236.668c-5.078-9.076-10.714-19.319-12.839-22.693a3.077,3.077,0,0,0-3.226-1.725,5.89,5.89,0,0,0-3.153,1.66,2.953,2.953,0,0,0-.213,3.589c6.578,10.5,12.79,20.536,15.813,25.567,2.946,4.9,11.087,18.286,14.945,24.443a2.539,2.539,0,0,0,4.391-2.543C114.746,259.158,108.6,248.24,102.125,236.668Z"/><path class="a" d="M102.955,235.338a16.445,16.445,0,0,0-4.958-2.3,16.24,16.24,0,0,0-4.045-.595,40.7,40.7,0,0,0-5.2.441,58.966,58.966,0,0,1-9.819.468c-1.744-.106-4.5-.061-5.936.928a21.742,21.742,0,0,0-5.8,5.533,45.188,45.188,0,0,0-5.853,12.206c-.57,1.657-.4,5.054,1.04,6.052,2.954,2.043,9.859,9.42,13.866,11.244a12.787,12.787,0,0,0,4.9,1.192c2.14.012,4.8-1.126,4.746-4.631a6.982,6.982,0,0,0,4.936,1.554,6.347,6.347,0,0,0,2.946-.819,5.648,5.648,0,0,0,2.126-4.823l-.034-.356c.339.275.688.55,1.044.829a6.279,6.279,0,0,0,7.452-.256c.983-1,2.209-4.123,1.372-6.324l-.118-.284c.213.193.436.384.661.576a7.5,7.5,0,0,0,3.419,1.473,4.612,4.612,0,0,0,3.582-.627,4.81,4.81,0,0,0,1.494-4.97,14.127,14.127,0,0,0-2.565-4.824c-2.2-3.085-6.561-9.221-9.254-11.683"/><path class="c" d="M77.352,261.386a72.713,72.713,0,0,0,5.423,5.036c1.671,1.4,3.371,2.792,5.573,3.193a9.157,9.157,0,0,0,6.94-1.148,7.919,7.919,0,0,0,3.014-6.683,2.456,2.456,0,0,0-2.4-2.4,2.42,2.42,0,0,0-2.4,2.4c.014.215.017.423.012.638s.057-.109-.032.261c-.051.212-.105.42-.173.627-.032.1-.229.527-.095.255-.109.222-.234.427-.361.639-.086.143-.2.253-.034.061-.07.079-.548.485-.1.171a3.884,3.884,0,0,1-.362.216c-.464.264.159,0-.382.153-.172.048-.345.094-.516.144a2.8,2.8,0,0,1-.9.076c-.258,0-.512-.022-.769-.03-.19-.007-.318-.029-.052.009a7.009,7.009,0,0,1-1.126-.276c-.333-.105.459.266-.092-.037-.157-.086-.317-.166-.472-.257-.277-.163-.7-.454-.841-.559-.539-.4-1.364-1.119-1.988-1.659-1.551-1.342-3.035-2.756-4.467-4.225a2.4,2.4,0,1,0-3.395,3.4Z"/><path class="c" d="M84.565,254.809c2.309,2.127,4.644,4.227,7.054,6.24,2.106,1.758,4.33,4.086,7.133,4.559,2.523.425,5.6-.087,7.424-2.034a9.209,9.209,0,0,0,1.874-8.535,2.458,2.458,0,0,0-2.953-1.676,2.425,2.425,0,0,0-1.676,2.952,3.658,3.658,0,0,1-.082,2.606A3.5,3.5,0,0,1,102.87,260c-.035.059-.374.538-.16.273.272-.337-.413.373-.061.071.259-.223-.244.137-.315.181-.092.052-.185.1-.28.143q.3-.121.058-.03a6.234,6.234,0,0,1-1.287.328c.4-.049-.308,0-.385,0a5.313,5.313,0,0,1-.787-.038c.338.049-.418-.124-.406-.12-.575-.165.11.113-.427-.167a16.16,16.16,0,0,1-2.37-1.8q-1.285-1.044-2.547-2.12c-2.02-1.723-3.991-3.5-5.944-5.3-2.269-2.09-5.672,1.3-3.394,3.394Z"/><path class="c" d="M83.54,266.048a2.244,2.244,0,0,1-.774,1.654,2.792,2.792,0,0,1-1.489.4,10.066,10.066,0,0,1-5.19-1.622c-3.046-1.924-5.648-4.567-8.305-6.977-1.208-1.1-2.418-2.193-3.725-3.169-.1-.077-.214-.153-.316-.234.378.3.021.03-.01-.041.068.158-.095-.329-.137-.511a6.582,6.582,0,0,1-.118-2.207,25.856,25.856,0,0,1,1.966-5.463,40.372,40.372,0,0,1,3.11-5.769,19.221,19.221,0,0,1,4.557-4.972,5.692,5.692,0,0,1,2.315-1.249,12.059,12.059,0,0,1,2.891-.168,94.246,94.246,0,0,0,12.557-.7c3.841-.386,8.479-.058,11.319,2.938a83.775,83.775,0,0,1,7.07,9.045c1.234,1.724,3.051,3.681,3.257,5.87.214,2.28-1.621,2.543-3.4,1.942a9.656,9.656,0,0,1-3.082-2.224c-1.079-.949-2.145-1.91-3.21-2.875-2.3-2.084-4.594-4.174-6.951-6.194a2.462,2.462,0,0,0-3.394,0,2.421,2.421,0,0,0,0,3.394c2.471,2.118,4.872,4.313,7.285,6.5,2.212,2,4.488,4.6,7.29,5.735,2.656,1.073,5.954,1.236,8.187-.851a7.551,7.551,0,0,0,1.609-7.9,25.782,25.782,0,0,0-3.894-6.441c-1.424-1.981-2.876-3.942-4.384-5.86a23.064,23.064,0,0,0-4.593-4.957,18.092,18.092,0,0,0-6.692-2.724,18.643,18.643,0,0,0-4.761-.328c-.711.04-1.42.1-2.128.183-.394.043-.787.092-1.179.143.175-.023-1.57.2-.912.123a61.5,61.5,0,0,1-7.266.465c-2.511,0-5.116-.365-7.558.43-2.587.843-4.992,3.083-6.761,5.095-3.593,4.089-5.805,9.338-7.551,14.429a9.918,9.918,0,0,0,.016,6.551,5.866,5.866,0,0,0,2.13,2.736c.344.258.063.039,0-.013.181.138.356.285.532.43.37.306.732.621,1.093.938,3.619,3.181,7.057,6.947,11.273,9.357a13.144,13.144,0,0,0,8.624,1.774,6.561,6.561,0,0,0,5.331-5.406,2.476,2.476,0,0,0-1.676-2.952,2.417,2.417,0,0,0-2.952,1.676Z"/><path class="c" d="M129.3,106.61a16.739,16.739,0,0,0,8.116,1.9,13.207,13.207,0,0,0,8.257-2.479,2.4,2.4,0,0,0,0-3.394,2.473,2.473,0,0,0-3.394,0c.742-.582.239-.185.047-.061-.159.1-.324.2-.491.287-.207.109-.794.28-.1.073-.229.068-.45.175-.678.249a12.841,12.841,0,0,1-1.9.436c.355-.058.141-.018-.092,0-.186.018-.372.034-.559.046q-.672.043-1.348.038-.6,0-1.207-.044c-.185-.012-.369-.027-.553-.046-.09-.009-.761-.132-.178-.018a17.916,17.916,0,0,1-1.772-.4c-.248-.075-.49-.164-.735-.249-.582-.2.433.215-.093-.036-.3-.145-.6-.3-.9-.453a2.4,2.4,0,1,0-2.423,4.144Z"/><path class="c" d="M136.041,87.535a37.9,37.9,0,0,1,.877,4.051l-.085-.638a2.549,2.549,0,0,1,.015.559l.085-.638a1.352,1.352,0,0,1-.061.251l.242-.573a.942.942,0,0,1-.088.162l.376-.486a.854.854,0,0,1-.132.13l.486-.375a2.484,2.484,0,0,1-.318.17l.573-.242a2.277,2.277,0,0,1-.536.158l.638-.086a2.116,2.116,0,0,1-.5,0l.638.086c-.189-.027-.376-.073-.565-.1a1.823,1.823,0,0,0-.957-.043,1.778,1.778,0,0,0-.893.285,2.4,2.4,0,0,0-.861,3.283,2.3,2.3,0,0,0,1.435,1.1c.462.063.91.18,1.38.2a4.467,4.467,0,0,0,2.074-.5,3.074,3.074,0,0,0,1.678-2.018,4.959,4.959,0,0,0-.02-2.138c-.218-1.3-.517-2.6-.85-3.878a2.4,2.4,0,0,0-4.628,1.276Z"/><path class="c" d="M115.138,75.978c-.671,2.2-.234,7.255,3.894,7.686,5.457-.033,5.747-6.147,3.91-9.022C121.439,72.289,117.016,71.31,115.138,75.978Z"/><path class="c" d="M158.833,75.978c.67,2.2.233,7.255-3.9,7.686-5.456-.034-5.747-6.147-3.91-9.022C152.531,72.289,156.954,71.31,158.833,75.978Z"/><path class="d" d="M94.118,27.032a41.313,41.313,0,0,0-3.99,8.109,49.864,49.864,0,0,0-.189,32.32,7.568,7.568,0,0,1,1.975-.316,6.293,6.293,0,0,1,4.576,1.69,8.066,8.066,0,0,0,6.44-2.449l.033-.034c4.857-5.459,13.43-13.689,19.446-16.871.7-.374,1.611.131,1.9,1.32a7.882,7.882,0,0,1,.185,2.847,1.473,1.473,0,0,0,2.095,1.592c4.294-2.406,11.947-7.25,17.373-9.557l8.046,1a25.946,25.946,0,0,1,7.411,4.7c4.884,4.239,9.567,10.055,11.641,15.319a5.611,5.611,0,0,0,6.423,2.134l.788-.266a6.379,6.379,0,0,1,3.825-1.071,7.559,7.559,0,0,1,2.076.356c4.072-15.985,1.748-36.793-10.7-46.76l-5.383-5.645C161.978,7.4,152.051,3.033,137.869,2.411c-18.449-.624-32.067,7.632-38.095,15.32l1.2,1.309A36.911,36.911,0,0,0,94.118,27.032Z"/><path class="c" d="M101.471,19.428c5.337-6.741,13.412-10.977,21.661-13.084a52.929,52.929,0,0,1,17.294-1.377,46.206,46.206,0,0,1,14.368,3.249,27.744,27.744,0,0,1,11.218,8.444,2.481,2.481,0,0,0,3.284.862,2.416,2.416,0,0,0,.861-3.284,32.355,32.355,0,0,0-11-9.251A47.41,47.41,0,0,0,143.289.456C131.675-.976,119.563.927,109.32,6.732a38.429,38.429,0,0,0-11.243,9.3,2.476,2.476,0,0,0,0,3.394,2.416,2.416,0,0,0,3.394,0Z"/><path class="c" d="M92.254,66.825c-4.043-12.591-3.386-26.9,3.75-38.289a35.447,35.447,0,0,1,6.7-7.83c2.327-2.041-1.079-5.424-3.394-3.394-10.663,9.35-15.3,24.06-14.211,37.962A56.343,56.343,0,0,0,87.626,68.1c.941,2.93,5.577,1.677,4.628-1.276Z"/><path class="c" d="M171.771,22.791c9.8,7.948,12.42,21.672,11.735,33.667a57.521,57.521,0,0,1-1.57,10.431c-.735,3,3.893,4.28,4.629,1.276,3.212-13.106,2.706-28.456-4.259-40.331a31.082,31.082,0,0,0-7.141-8.437,2.472,2.472,0,0,0-3.394,0,2.417,2.417,0,0,0,0,3.394Z"/><path class="c" d="M150.794,48.753a32.256,32.256,0,0,1,10.329,7.575,36.214,36.214,0,0,1,7.62,11.011,2.474,2.474,0,0,0,2.952,1.676,2.416,2.416,0,0,0,1.676-2.952,41.7,41.7,0,0,0-8.609-12.872,36.111,36.111,0,0,0-11.546-8.583,2.476,2.476,0,0,0-3.283.861,2.418,2.418,0,0,0,.861,3.284Z"/><path class="c" d="M104.66,68.049a90.8,90.8,0,0,1,16.046-14.712c.617-.421,1.245-.828,1.889-1.208a4.032,4.032,0,0,0,.518-.3c.339-.291.374.1-.213-.07-.912-.259-.935-.814-.79.229.122.881-.117,1.755.062,2.63a4.02,4.02,0,0,0,1.836,2.663c1.9,1.127,3.636.131,5.307-.838,1.525-.884,3.039-1.786,4.559-2.677a103.776,103.776,0,0,1,11.3-6.011,2.416,2.416,0,0,0,.861-3.284,2.461,2.461,0,0,0-3.283-.861,95.518,95.518,0,0,0-10.129,5.329c-1.586.922-3.164,1.86-4.747,2.788-.67.392-1.341.784-2.016,1.168-.059.033-.484.265-.482.272l.528-.016q.528-.224.741.243c.726.262-.029.375.263.1a2.765,2.765,0,0,0,.039-.8c-.014-2.132-.636-4.758-2.911-5.516-1.838-.612-3.44.512-4.928,1.473a71.049,71.049,0,0,0-8.989,7.114,118.481,118.481,0,0,0-8.851,8.9c-2.052,2.3,1.331,5.7,3.394,3.394Z"/><path class="c" d="M94.388,90.772a51.784,51.784,0,0,0,11.029,22.279c5.228,6.169,11.994,11.1,20.135,12.354a2.476,2.476,0,0,0,2.952-1.676,2.417,2.417,0,0,0-1.676-2.952c-7.426-1.144-13.249-5.494-18.017-11.12A46.75,46.75,0,0,1,99.017,89.5c-.666-3.015-5.3-1.739-4.629,1.276Z"/><path class="c" d="M174.733,89.5a47.067,47.067,0,0,1-8.66,18.776,35.462,35.462,0,0,1-7.363,7.281,32.716,32.716,0,0,1-8.772,4.252c-2.923.955-1.672,5.591,1.276,4.629a37.137,37.137,0,0,0,9.918-4.737,40.171,40.171,0,0,0,8.335-8.031,51.71,51.71,0,0,0,9.895-20.894c.665-3.011-3.962-4.3-4.629-1.276Z"/><path class="c" d="M179.207,70.867a4.15,4.15,0,0,1,3.438-.925,3.979,3.979,0,0,1,1.766.694c-.171-.123.808.873.487.447,1.538,2.038,1.545,5.089,1.362,7.516a19.41,19.41,0,0,1-2.306,7.5c-1.194,2.249-3.535,5.681-6.528,5.27a2.483,2.483,0,0,0-2.953,1.676,2.417,2.417,0,0,0,1.677,2.952c7.642,1.051,12.107-6.341,14.085-12.679,1.631-5.228,1.669-13.4-3.4-16.824a9.187,9.187,0,0,0-11.02.982c-2.3,2.068,1.1,5.453,3.394,3.394Z"/><path class="c" d="M98.218,67.155a9.229,9.229,0,0,0-10.124-1.528,8.908,8.908,0,0,0-4.62,6.006c-1.627,5.982-.126,12.948,3.243,18.083,2.273,3.466,5.9,6.625,10.337,6.051a2.479,2.479,0,0,0,2.4-2.4,2.413,2.413,0,0,0-2.4-2.4c-3.3.427-5.512-2.3-6.949-4.94a19.463,19.463,0,0,1-2.393-7.651c-.186-2.469-.164-5.516,1.359-7.606.095-.132.076-.106-.056.08q.148-.172.31-.332c.048-.042.534-.428.3-.264a3.843,3.843,0,0,1,1.595-.638,4.167,4.167,0,0,1,3.6.933c2.278,2.078,5.682-1.308,3.394-3.394Z"/><path class="c" d="M153.735,119.654v4.181a15.145,15.145,0,0,0,.5,5.057,12.641,12.641,0,0,0,6.228,6.814c3.316,1.834,7.063,3,10.588,4.392A2.417,2.417,0,0,0,174,138.422a2.455,2.455,0,0,0-1.676-2.952c-2.913-1.15-6-2.161-8.694-3.515a15.149,15.149,0,0,1-3.125-1.971,5.842,5.842,0,0,1-1.747-2.666,15.687,15.687,0,0,1-.222-4.116v-3.548c0-3.089-4.8-3.094-4.8,0Z"/><path class="c" d="M115.445,120.594a36.227,36.227,0,0,1-.087,6.191,6.489,6.489,0,0,1-3.273,4.193c-2.913,1.846-6.331,2.875-9.526,4.133a2.44,2.44,0,0,0-.573,4.386c7.188,5.508,16.432,8.508,25.315,9.74a63.078,63.078,0,0,0,30.383-3.209,48.192,48.192,0,0,0,12.973-6.989,2.412,2.412,0,0,0,0-3.394,2.462,2.462,0,0,0-3.394,0c-6.568,5.079-15.2,7.732-23.308,8.9a58.342,58.342,0,0,1-27.839-2.97,43.145,43.145,0,0,1-11.708-6.218l-.573,4.386c3.936-1.549,8.225-2.785,11.672-5.3a11.19,11.19,0,0,0,4.378-5.962c.706-2.477.36-5.336.36-7.887,0-3.089-4.8-3.094-4.8,0Z"/><path class="c" d="M178.568,305.022c4.427,0,8.854.063,13.28,0a2.4,2.4,0,0,0,0-4.8c-4.426.063-8.853,0-13.28,0a2.4,2.4,0,0,0,0,4.8Z"/><path class="c" d="M163.254,285.257c1.257,8.395,2.407,16.805,3.678,25.2a2.416,2.416,0,0,0,2.952,1.676,2.46,2.46,0,0,0,1.676-2.952c-1.27-8.392-2.421-16.8-3.677-25.2a2.417,2.417,0,0,0-2.953-1.676,2.462,2.462,0,0,0-1.676,2.952Z"/><path class="c" d="M188.814,287.782c-.066.127-.139.249-.208.373-.076.139-.339.387.021.009-.179.187-.409.379-.567.579-.176.222.423-.267-.034.028-.109.07-.216.143-.327.21-.143.086-.289.165-.438.24-.044.022-.435.193-.184.092.29-.117-.256.085-.311.1-.176.057-.353.107-.532.153-.147.037-.3.071-.444.1s-.52.087-.177.043a11.263,11.263,0,0,1-2.358.015c-.41-.034.312.057-.091-.008-.2-.032-.4-.068-.6-.11q-.525-.114-1.038-.274c-.186-.058-.37-.124-.555-.189-.148-.052-.3-.122-.068-.019a10.171,10.171,0,0,1-1-.51c-.282-.165-.555-.344-.821-.534-.222-.159.228.216-.093-.083-.1-.093-.206-.182-.305-.277-.122-.117-.232-.244-.352-.362-.08-.078-.359-.453-.063-.045a6.89,6.89,0,0,1-.5-.8,2.422,2.422,0,0,0-3.284-.861,2.452,2.452,0,0,0-.861,3.284c1.868,3.474,5.871,5.229,9.634,5.592,3.584.346,7.948-.9,9.7-4.323a2.4,2.4,0,1,0-4.144-2.423Z"/></svg>